<svg xmlns="http://www.w3.org/2000/svg" viewBox="0 0 109.79 109.79"><g id="icones"><path d="M44.4,51.65a18.15,18.15,0,0,1,6.78,3.85,16.21,16.21,0,0,1,4.92,10,20.38,20.38,0,0,1-.51,9.19,16.73,16.73,0,0,1-8.44,9.72,26.76,26.76,0,0,1-12.3,3c-10.82.11-21.65,0-32.48,0l-.48,0V22.43c.3,0,.59,0,.88,0q14.63,0,29.25,0A35.8,35.8,0,0,1,43.31,24c5.89,2,9.13,6.22,9.74,12.41.38,3.82-.12,7.44-2.55,10.59a15.14,15.14,0,0,1-5,4.11ZM18.08,57.87V77.28c4.2,0,8.31.1,12.42,0a10.46,10.46,0,0,0,7.36-3.2c3.69-3.8,3.5-10.59-.42-13.89a10.49,10.49,0,0,0-6.63-2.29c-4-.1-8.11,0-12.17-.07A4.49,4.49,0,0,0,18.08,57.87ZM18,48a2.32,2.32,0,0,0,.39.09c3.78,0,7.57.06,11.35-.07a8.53,8.53,0,0,0,5.66-2.12A7.58,7.58,0,0,0,37.57,40a7.29,7.29,0,0,0-2.38-5.84,9.47,9.47,0,0,0-6.08-2.24c-3.37-.12-6.74-.08-10.11-.17-.86,0-1,.28-1,1.06,0,4.33,0,8.65,0,13Z"/><path d="M74.51,67.51a10.55,10.55,0,0,0,9.73,10.07c3.23.25,6.24-.21,8.85-2.28A10.64,10.64,0,0,0,96,71.51a1.15,1.15,0,0,1,.79-.6c3.43,0,6.86,0,10.29,0a4.69,4.69,0,0,1,.53.09c-.47,1.14-.85,2.26-1.38,3.3-2.61,5.14-6.38,9.09-11.85,11.2a24.82,24.82,0,0,1-14.59.93,23.85,23.85,0,0,1-9.88-4.57,21.1,21.1,0,0,1-7.7-13.68,33,33,0,0,1,.37-12.87A20.31,20.31,0,0,1,75.23,40.37a27.51,27.51,0,0,1,14.64-1.74,19.69,19.69,0,0,1,9.79,4,20.23,20.23,0,0,1,6.7,10.83A47.61,47.61,0,0,1,107.89,67c0,.14,0,.28,0,.51Zm0-9.4H95.17C94.79,51.44,91,47.87,84.52,48S74.65,53,74.51,58.11Z"/><path d="M85.11,31.77c-4.26,0-8.52,0-12.78,0A3.14,3.14,0,0,1,69,28.58a3.2,3.2,0,0,1,3.27-3.29c2.41,0,4.83,0,7.24,0,6.17,0,12.34,0,18.51,0a3.24,3.24,0,0,1,3.24,4.3A3.17,3.17,0,0,1,98,31.76Z"/></g></svg>