<svg xmlns="http://www.w3.org/2000/svg" viewBox="0 0 109.53 109.53"><defs><style>.cls-1{fill:none;stroke:#000;stroke-miterlimit:10;stroke-width:8px;}</style></defs><g id="icones"><path class="cls-1" d="M17.31,61.59V18.36c0-7.17,5.42-13,12.11-13H77.09A11.18,11.18,0,0,1,85.24,9l13.6,14.59a12.79,12.79,0,0,1,3.38,8.74v51.1c0,7.17-5.42,13-12.11,13h-56"/><path class="cls-1" d="M82.2,74.09v-9.3a11.27,11.27,0,0,0-3-7.72h0a11.3,11.3,0,0,0-8.28-3.6H50.61a5.93,5.93,0,0,0-4.31,1.91l-7.19,7.71a6.8,6.8,0,0,0-1.78,4.62v6.38"/><circle class="cls-1" cx="59.77" cy="34.3" r="10.24"/><path class="cls-1" d="M17.31,71.11V94.69"/><polygon points="32.86 92.6 1.76 92.6 17.31 108.15 32.86 92.6"/></g></svg>