<svg xmlns="http://www.w3.org/2000/svg" viewBox="0 0 102.38 102.38"><g id="icones"><path d="M48.17,5.37h6.08c.29.06.57.14.87.18,1.85.26,3.73.41,5.55.8A45.16,45.16,0,0,1,85,20.33,44.57,44.57,0,0,1,96.3,43.21c.28,1.63.47,3.28.71,4.92v6.09a6.6,6.6,0,0,0-.17.77c-.21,1.56-.31,3.14-.61,4.68a44.94,44.94,0,0,1-17,27.68,44.46,44.46,0,0,1-36.51,8.82A44,44,0,0,1,15.21,79.42a44.41,44.41,0,0,1-9-36.8,44.51,44.51,0,0,1,16.7-27.45A44,44,0,0,1,43.24,6.09C44.87,5.81,46.52,5.61,48.17,5.37ZM27.25,81.1a3,3,0,0,0,.2.23A38.31,38.31,0,0,0,49.5,89.52a38.72,38.72,0,0,0,16.71-3,1,1,0,0,0,.72-1.33A147.91,147.91,0,0,0,59.6,59.09c-.08-.21-.19-.4-.31-.64C46.27,62.77,35.84,70.62,27.25,81.1ZM21.89,76c9.39-11.27,20.7-19.64,34.69-24.37l-3.92-8.33a127.79,127.79,0,0,1-39.85,6.37A38.62,38.62,0,0,0,21.89,76ZM49.1,36.57a181.16,181.16,0,0,0-13-20.09c-.4-.54-.72-.32-1.13-.12A38.28,38.28,0,0,0,15.19,37.87c-.53,1.39-.9,2.84-1.37,4.3C22.71,42.54,41.31,39.57,49.1,36.57Zm10.58,4c1.44,3.13,2.83,6.14,4.24,9.18A65.35,65.35,0,0,1,89.57,50,38.2,38.2,0,0,0,81,27,76.65,76.65,0,0,1,59.68,40.55Zm-16.17-27L56.43,33.89A67.88,67.88,0,0,0,75.86,21.71,38.61,38.61,0,0,0,43.51,13.5ZM66.65,56.69a154.11,154.11,0,0,1,7.21,25.49A38.75,38.75,0,0,0,89.12,57.45,58.58,58.58,0,0,0,66.65,56.69Z"/></g></svg>