<svg xmlns="http://www.w3.org/2000/svg" viewBox="0 0 102.38 102.38"><g id="icones"><path d="M98.3,51.18c-.12,6.42-.17,12.85-.36,19.27C97.78,75.82,96.8,81,94,85.71A23.51,23.51,0,0,1,77.35,97.1a83.16,83.16,0,0,1-12.91,1.05c-9.41.15-18.83.11-28.25,0-4.9-.06-9.81-.24-14.53-1.87-8.73-3-14.08-9.1-16.3-18-1.13-4.53-1.19-9.18-1.22-13.81-.07-9.38-.08-18.76,0-28.14,0-4.86.22-9.75,1.8-14.44C9,13.08,15.05,7.66,24,5.41c4.54-1.13,9.19-1.19,13.82-1.22,9.41-.07,18.83-.08,28.25,0,4.89.06,9.81.24,14.53,1.86,8.72,3,14.07,9.1,16.3,18,1.13,4.53,1.14,9.18,1.23,13.81.08,4.43,0,8.87,0,13.3ZM51.19,12.73c-4.74,0-9.48-.09-14.22,0a79.37,79.37,0,0,0-9.75.73c-7.14,1.06-12.06,5.86-13.64,12.92-.94,4.23-.86,8.53-.95,12.81q-.2,8.56,0,17.12c.1,5.8.11,11.62.66,17.38.74,7.8,5.23,13.22,13.06,15,4.26,1,8.6.87,12.92,1,5.74.13,11.48.13,17.22,0s11.55-.1,17.28-.66c7.71-.75,13.13-5.16,14.94-13,1-4.25.89-8.6,1-12.91q.19-8.67,0-17.33c-.1-5.73-.24-11.46-.64-17.18a16.31,16.31,0,0,0-4.46-10.29c-3.48-3.66-8-5.07-12.79-5.29Z"/><path d="M51.12,75.34a24.17,24.17,0,1,1,24.21-24.7A24.25,24.25,0,0,1,51.12,75.34ZM66.82,51.2a15.68,15.68,0,1,0-15.7,15.66A15.77,15.77,0,0,0,66.82,51.2Z"/><path d="M81.9,26a5.67,5.67,0,0,1-5.64,5.73,5.77,5.77,0,0,1-5.7-5.72,5.65,5.65,0,0,1,5.64-5.62A5.53,5.53,0,0,1,81.9,26Z"/></g></svg>