<svg xmlns="http://www.w3.org/2000/svg" viewBox="0 0 102.38 102.38"><defs><style>.cls-1{fill:none;stroke:#000;stroke-miterlimit:10;stroke-width:8px;}</style></defs><g id="icones"><rect class="cls-1" x="6.18" y="39.15" width="18.56" height="52.75" rx="5.07"/><rect class="cls-1" x="8.16" y="10.48" width="14.69" height="14.69" rx="7.34"/><path class="cls-1" d="M77.64,90A1.86,1.86,0,0,0,79.5,91.9H94.35A1.86,1.86,0,0,0,96.21,90V59.7h0v0a27,27,0,0,0-27-27h0a27,27,0,0,0-27,27l0,30.4A1.86,1.86,0,0,0,44,91.9H58.82A1.85,1.85,0,0,0,60.67,90l0-30.51a8.48,8.48,0,0,1,8.48-8.48h0a8.48,8.48,0,0,1,8.47,8.48Z"/></g></svg>