<?xml version="1.0" encoding="UTF-8"?><svg id="Layer_0_Image" data-name="Layer 0 Image" xmlns="http://www.w3.org/2000/svg" viewBox="0 0 800 600" x="0px" y="0px" width="800px" height="600px" version="1.1" xmlns:xlink="http://www.w3.org/1999/xlink"><title>1</title><path d="M509.738,184.569c-.485-5.587,5.282-8.793,1.292-14.046-1.633-2.15,2.4-3.047,3.773-4.506a162.543,162.543,0,0,1,26.778-22.474c4.063-2.78,9.673-1.381,14.345.745,1.1.5,2.354,1.562,1.758,3.157-.78,2.085-2.193.284-3.3.375-1.533.126-3.1.068-4.417,1.741,3.5,2.98,6.422,6.488,11.726,6.774,3.747.2,2.679,4.456,2.8,6.243.277,4.261,3.134,5.583,5.59,7.952,2.357,2.272,3.42,5.317,7.85,3.666,1.662-.62,4.722.523,5.794,3.2-2.217,2.134-4.076-.072-6.07-.641-1.165,5.841,3.219,5.317,6.275,6.253,1.582.485,3.784.171,4.038,2.61.281,2.706-3.042,1.131-3.78,3.321,4.8,1.3,6.483,4.094,1.229,6.554-3.588,1.68-.5,5.775-4.254,6.841.131-2.391-1.411-4.308-2.567-6.487-3.223,1.472.145,3.815-.718,5.632-3.369.229-4.262-4.608-8.241-2.636,1.01-2.822,7.71-5.612-.522-5.757-2.688-.047-4.2-5.162-8.115-1.965-1.006.822-1.294-1.5-1.316-2.17a8.058,8.058,0,0,0-8.234-8.094c-4.629.07-11.243-2.667-13.727,4.989-.61,1.879-2.786,3.338-4.433,4.77-2.462,2.139-5.629,3.131-4.356,8.065.621,2.406-2.233,6.613-7.019,5.28-4.714-1.314-7.644.473-7.354,5.423.181,3.085-1.192,1.481-2.525,2.082-5.165,2.327-11.738-2.8-16.085,3.638-2.14,3.169-3.736,4.68,1.877,4.943-6.745,2.012-13.536,3.884-20.218,6.086-4.263,1.4-7-.557-9.292-3.587-1.118-1.478-1.177-3.168-4.175-2.555-2.941.6-5.394-2.4-6.153-5.037-1.357-4.71-4.758-7.78-7.438-11.483-3.187-4.4-7.093-4.136-9.884-.689-6.9,8.527-16.7,14.067-23.11,22.973-2.665,3.7-9.493,2.894-9.608,9.15-1.691-.109-3.452-.573-5.059-.254-3.65.724-7.246,1.759-10.823,2.807-3.257.953-5.854.96-6.218-4.27-.841,6.223-3.859,6.266-8.166,4.78-1.56-.539-4.058.062-3.934-2.053.062-1.037,1.974-3.723,4.465-2.541,1.945.922,3.746,1.342,3.65-1.41-.107-3.061-3-1.461-4.135-1.289-9.271,1.406-16-1.794-20.745-9.932-1.984-3.405-5.909-3.966-9.176-2.615-10.789,4.461-22.194,9.544-29.037,18.522-4.49,5.89-10.518,9.242-15.024,14.594-3.931,4.668-9.869,7.129-13.552,12.605-3.208,4.77-17.62,4.155-21.39-.84-6.775-8.978-17-15.356-20.43-26.871-.944-3.17-3.061-2.523-5.2-1.283-3.809,2.208-7.591,4.466-11.422,6.635-1.983,1.122-3.541,3.043-6.51,1.595-3-1.462-4,1.852-5.406,3.562-.755.915.013,3.612-1.11,3.46-6.525-.885-6.111,6.1-9.86,8.282-2.473,1.441-2.345,1.434-6.659,1.165-1.257-.078-2.771,1.189-3.893,2.157a76.25,76.25,0,0,1-28.965,16.109c-4.782,1.383-7.485.137-9.348-3.26-3.765-6.868-10.213-11.094-15.243-16.692-1.755-1.953-3.118-2.538-5.036.1a82.984,82.984,0,0,1-22.77,21.49c-1.881,1.195-1.157,5.066-3.735,5.685-5.82,1.4-11.748,2.389-17.671,3.286-1.533.232-2.328-.984-1.547-2.651.833-1.775.356-2.886-1.6-3.456-7.233-2.1-8.857-8.012-3.8-14.206,7.342-8.994,14.838-17.862,22.194-26.846,7.338-8.963,14.658-17.944,21.83-27.04,2.486-3.154,5.091-6.2,8.48-8.254,3.816-2.317,9.169-3.226,11.282.8,3.809,7.256,10.973,12.426,12.725,20.788,1.094,5.223,3.219,3.569,6.084,1.405,17.79-13.44,36.016-26.164,57.356-33.546.416-.145.814-.346,1.233-.481,25.3-8.1,28.36-2.28,38.21,18.411,4.805,10.095,2.181,11.454,12.967,2.88,11.035-8.773,20.978-18.919,32.89-26.593,9.637-6.207,19.232-12.577,31.713-10.659,9.175,1.411,15.574,7.293,21.371,13.54,9.6,10.341,19.164,8.027,29.185.27,10.884-8.424,21-17.826,31.639-26.582,12.372-10.188,19.718-8.789,29.539,5.391,2.128,3.072,3.747,6.535,6.1,9.4,5.554,6.752,12.364,7.594,19.988,3.472,7.2-3.891,14.822-6.988,21.5-11.848,1.012-.736,2.1-3.014,3.714-.868,1.084,1.443.1,2.964-.669,4.3C505.822,179.687,505.8,179.676,509.738,184.569Zm23.518-8.542c2.292-3.381,3.368-5.378-.872-8-2.241-1.386-6.636-1.713-6.519-6.232.02-.767-1.54-.227-2.2.284-.5.388-1.992.288-1,1.684,3.23,4.561.727,7.641-3.144,10.609,3.168-.762,5.983,3.272,9.095-.673.837-1.061-.743-4.294,2.2-3.3C532.953,171.128,533.462,173.252,533.256,176.027ZM243.245,203.3q-.273-.851-.547-1.7c-9.356-.171-17.459,3.577-24.88,9.456Zm248.14-14.335c-5.734,1.521-9.859,4.055-14.645,4.209-1.447.047-3.57.333-3.263,2.282.247,1.565,2.2,1.644,3.791,1.751C483.221,197.606,487.487,194.971,491.385,188.962Zm3.842-.051c4.264-1.682,10.954,1.319,9.01-7.6C500.855,183.123,496.8,183.634,495.227,188.911Zm22.545-.822c-4.112,3.345-7.334,5.976-10.569,8.591-.524.424-2.657-.971-1.5,1.237a3.166,3.166,0,0,0,2.129.937C510.5,195.14,516.955,195.236,517.772,188.089ZM230.06,239.96l15.717-8.835C239.487,232.092,234.4,235.213,230.06,239.96Z"/><path d="M490.357,318.008c-13.125,3.761-24.469,1-33.838-9.165-2.327-2.524-5.294-4.764-8.708-3.663-8.867,2.861-18.384,2.107-27.141,6.2-13.458,6.286-26.03,14.492-40.339,18.94-5.417,1.685-10.868,3.256-16.405,4.908-.532,2.823,2.9.793,3.42,2.549-.668.256-1.332.784-1.867.675-9.1-1.849-19.486-.988-25.739-9.475-2.354-3.195-6.055-3.99-8.423-6.985-.834-1.056-5.5.222-8.036,1.324-14.243,6.2-28.282,12.873-42.578,18.945-4.97,2.112-10.447,3.081-15.746,4.347-2.255.538-4.139.664-6.163-1.96-1.546-2-4.6-6.26-8.553-2.064-2.81-3.307-8.5-.041-10.9-5.66-2.726-6.367-7.82-5.314-14.087-3.087-8.659,3.078-12.705,11.688-20.968,14.657-1.7.612-2.675,2.169-3.368,3.892-.485,1.209-1.206,3.213-1.968,3.284-7.227.671-6.592,8.263-10.58,11.657-6.352,5.4-12.556,11.081-20.941,13.323-2.61.7-2.52.785-3.892,4.19-.237.59-1.371.954-2.16,1.166-5.412,1.455-7.733.15-13.556-5.971-1.115-1.172-4.054-.58-6.144-.86-7.238-.971-9-8.658-14.465-11.835-1.007-.586-2.41-2.818-2.938-1.359-2.214,6.113-10.412,5.918-12.265,12.293-.589,2.022-2.172,3.8-3.482,5.554-1.437,1.922-3.194,4.273-5.642,3.882-2.083-.334-2.279-3.124-2.251-5.047.058-3.87-5.695-3.124-5.328-8.053a30.146,30.146,0,0,1,5.214-14.74c6.922-10.262,9.927-21.973,13.833-33.356,1.121-3.268,2.134-5.562,6-5.752,3.623-.178,5.351,1.207,7.759,4.241,4.733,5.962,7.211,12.691,9.767,19.514,1.424,3.8,4.175,5.217,7.76,4.564,8.565-1.559,16.695-4.008,22.091-11.778,9.916-14.28,24.568-22.825,38.712-32.091,3.336-2.185,6.358-5.313,9.514-8.02a19.548,19.548,0,0,1,12.586-4.7c4.926-.112,7.738,2.636,9.943,7.14,6.026,12.312,11.463,14.069,24.369,9.121,13.831-5.3,27.522-11.106,41.667-15.394,6.534-1.982,12.578-5.685,19.839-5.812,6.147-.107,11.661.685,15.072,6.026,3.691,5.781,8.662,6.079,14.4,4.776a204.906,204.906,0,0,0,44.744-15.694c10.891-5.32,22-10.168,33.625-13.5,8.737-2.5,17.718-2.324,24.8,4.662,5.919,5.837,12.59,6.3,20.165,4.571,19.037-4.339,36.758-12.225,54.5-20.018,20.7-9.1,40.566-20.058,61.8-28,5.034-1.884,10.032-4.242,15.8-1.813-1.971,4.366-5.835,4.56-9.05,5.451a89.63,89.63,0,0,0-19.967,8.2c-.8.451-2.389,1.125-1.545,2.389.932,1.4,1.736.175,2.947-.353,8.216-3.58,15.736-9.332,25.374-8.835,2.386.123,5.866-1.284,4.37,3.687-.537,1.787,1.72,1.493,2.654,2.186.908.674,2.333,1.882,1.634,2.408-2.729,2.054-2.628,6.59-5.246,7.658a153.978,153.978,0,0,0-29.288,15.8c-10.03,6.947-22.615,10.341-30.21,20.769-8.062-.493-10.235,9.923-18.919,9.644-5.633-.181-9.7,6.041-14.034,9.461-8.442,6.659-18,8.722-27.749,11.021,4.743-4.507,11.8-4.206,16.814-8.214-7.891,3.008-16.207,4.3-24.4,6.646C485.077,318.913,488.4,314.489,490.357,318.008ZM299.216,305.394c-15.2.208-27.526,10.451-42.319,12.125-1.576.178-3.276,1.451-2.806,3.073.589,2.035,2.765,1.826,4.484,1.368,7.256-1.93,14.318-4.8,21.51-6.522,7.553-1.805,12.915-6.353,18.983-10.2,8.577.293,15.937-3.6,23.9-6.459C317.542,293.9,306.706,297.136,299.216,305.394ZM395,292.654a201.015,201.015,0,0,1-43.554,14.435C359.124,311.822,388.446,301.939,395,292.654Zm45.066-13.716c-4.164-3.963-16.147-.567-20.623,5.9C425.646,280.9,433.01,281.064,440.07,278.938ZM145.969,358.4c7.193.935,11.943.081,15.708-6.4C156.073,354.191,151.18,354.427,145.969,358.4Zm255.075-64.713c3.855-3.121,9.566-3.836,12.376-8.537C409.079,287.655,402,286.02,401.044,293.683ZM364.21,329.307c7.08,1.219,16.772-1.813,22.508-6.345Zm-80.351,6.977c-6.076.851-12.159,2.136-17.494,5.78A31.453,31.453,0,0,0,283.859,336.284Zm190.156-48.276.318,1.9a25.709,25.709,0,0,0,16.826-5.544Z"/><path d="M415.769,437.149c2.649,1.236,5.96-.985,8.145,2.379a14.344,14.344,0,0,1-10.578,2.163,12.013,12.013,0,0,0-5.8.093c-4.684,1.586-8.22,1.605-8.242-5.07-.011-3.046-11.136-8.788-14.748-8.11-4.493.843-10.086.626-13.305,2.44-8.648,4.871-19.24,6.927-25.55,15.586-1.22,1.674-2.992,1.434-4.56,2.044-5.794,2.255-13.075,1.341-16.643,8.545-1.395,2.816-2.038-2.919-5.063-1.466-3.4,1.633-7.664,1.646-11.585,1.986-9.6.834-14.97-1.678-16.652-10.74-1.1-5.9-3.467-3.738-6.565-2.953,1.193-2.887,3.982-5.7-1.688-6.114-3.707-.269-3.852-4.5-5.663-6.794-1.271-1.607,1.374-.811,2.319-1.164,1.636-.612,3.546-1.3,3.895-3.5-2.038-.248-1.37-4.423-4.854-3.026-2.19.878-4.562-.427-6.845-2.168,1.954,5.185-2.36,8.531-2.828,13.011-.347,3.331-1.723,6.692-.781,10.127.642,2.342-1.141,3.439-1.866,2.134-2.149-3.87-7.569-4.632-8.4-9.615-.325-1.956.755-2.244,1.863-2.819,1.135-.589,4.463.447,3.255-1.439-2.349-3.665-1.3-7.325-1.773-10.966-4.425,4.157-3.283-2.916-5.87-3.119-.609-.048-1.264-4.4,1.566-4.382,7.327.059,6.65-5.718,6.267-9.467-.6-5.846,2.337-8.589,6.469-11.24,2.421,1.268-1.021,5.761,3.288,6.028,3.5.217,3.107-3.231,4.665-4.832.848-.872,2.052-2.014,1.023-3.442-1.015-1.408-2.521-.518-3.642-.206-5.972,1.667-5.455-4.055-4.279-5.351,3.77-4.153,5.409-9.907,10.151-13.2,5.03-3.49,8.489-2.069,9.57,3.842a3.354,3.354,0,0,0,.914,1.711c9.692,9.279,7.7,21.192,7.059,32.612-.548,9.759-.2,10.164,9.475,7.818,11.269-2.731,21.277-8.355,31.593-13.249,11.878-5.635,23.537-11.8,36.31-15.2,10.136-2.7,19.346-1.068,26.118,7.731,3.541,4.6,7.386,5.109,12.675,3.038,17.618-6.9,33.676-16.732,49.948-26.138a163.773,163.773,0,0,1,25.06-11.346c9.945-3.694,20.285-1.2,27.654,6.932,6.867,7.576,14.666,9.354,24.29,7.962,26.961-3.9,52.577-12.607,78.134-21.479,26.367-9.153,52.277-19.52,77.986-30.386a14.96,14.96,0,0,1,4.435-1.226c2.422-.208,5.539-.293,6.317,2.268.619,2.038-2.548,2.527-3.98,3.763-1.368,1.18-4.783,1.162-3.732,3.676,1.115,2.667,3.805.513,5.841.423,2.771-.122,9.162-3.714,4.457,4.223a1.928,1.928,0,0,0,.28,1.681c5.932,7.808,2.889,14.619-6.712,18.4a129.7,129.7,0,0,0-19.379,9.749c-11.952,7.252-24.816,12.544-37.255,18.668a519.682,519.682,0,0,1-67.12,27.827,120.068,120.068,0,0,1-41.482,6.4c-2.272-.071-4.392-.1-6.281,1.627a11.135,11.135,0,0,0,6.151,3.042c-3.748-.721-7.793-.572-10.5-4.192-1.135-1.516-2.789-1.376-4.55-1.662-2.376-.387-6.645-.691-4.39-5.442a4.565,4.565,0,0,0,.211-1.206c-5.467,1.407-3.573-5.33-6.778-6.179a21.309,21.309,0,0,1-10.15-6.262c-2.142-2.242-5.179-2.158-7.908-1.737-2.4.37-5.4,4.044-5.878-1.788a5.04,5.04,0,0,0-2.385-.05,1.772,1.772,0,0,0-.83,2.747c1.529,2.65,1.027,5.146-1.652,5.894-4.248,1.185-6.829,5.794-11.539,5.471-2.452-.168-1.172-3.443-3.177-4.857-1.524,3.431-7.444,4.012-5.343,9.553.077.2-.542.974-.788.951-4.272-.393-4.765,1.8-5.777,5.621-1.079,4.067-6.688,4.274-10.476,5.875-.594.251-1.629.6-1.639.923-.281,8.9-7.674,3.084-11.175,5.339-1.071.689-2.013-.5-2.859-1.808-3.415-5.274-6.442-5.318-10.272-.955C419.928,434.753,417.752,435.755,415.769,437.149Zm139.838-49.928c-1.892-.536-21.811-.125-23.659.47-.844.271-1.864.525-1.6,1.631A3.472,3.472,0,0,0,531.7,391.4C536.314,394.043,551.125,391.4,555.607,387.221Zm-69.9-13.707c4.926,4.52,10.728,1.6,16.206,1.644a1.978,1.978,0,0,0,2.01-2.107c.063-.95-.593-2.007-1.431-1.662C497.042,373.629,490.725,368.579,485.71,373.514ZM313.977,425.481c-4.055.525-8.137.907-12.147,1.669-1.086.207-3.305-1.656-3.383,1.353-.058,2.22,1.3,2.754,3.14,3.371C307.456,433.844,310.325,429.108,313.977,425.481Zm254.217-11.756c-9.12,2-18.468,2.654-27.659,4.238C550.3,419.745,559.235,416.667,568.194,413.725Zm-26.112-9.363.144,1.038c6.494-.816,12.99-1.61,19.474-2.5a1.661,1.661,0,0,0,.989-1.3,2.011,2.011,0,0,0-2.419-1.672C554.188,401.324,548.141,402.869,542.082,404.362Zm39.725-25.185c-5.783.056-10.656,2.736-15.737,4.727C571.153,381.822,578.1,387.471,581.807,379.177ZM267.726,409.57c-1.961,1.771-3.828,3.023-2.738,5.545,1.1,2.552,3.336,3.661,7.988,4.011C268.4,416.518,269.13,412.965,267.726,409.57Zm45.8,43.986c-4.684-4.738-4.684-4.738-10.26,1.171Z"/><path d="M571.61,422.27c-5.3,3.218-11.026,4.41-18.229,4.259C559.583,422.222,566.159,424.613,571.61,422.27Z"/></svg>