<svg width="138" height="179" viewBox="0 0 138 179" fill="none" xmlns="http://www.w3.org/2000/svg">
<path d="M2.02794 2.39194C2.02794 14.5468 2.02794 26.7017 2.02794 38.8567C2.02794 62.613 0.937261 86.7949 15.6521 106.978C33.8051 131.876 63.4435 143.645 92.3883 150.521C104.801 153.47 117.818 156.265 130.656 156.265" stroke="white" stroke-width="3" stroke-linecap="round"/>
<path d="M109.088 130.987C114.106 132.779 118.049 140.409 121.238 144.281C123.967 147.595 126.602 151.167 130.006 153.83C131.588 155.068 134.994 156.174 136.12 157.862C136.471 158.389 134.938 158.33 134.324 158.487C128.335 160.013 122.711 162.887 116.997 165.173C105.044 169.954 92.5546 174.223 80.0537 177.349" stroke="white" stroke-width="3" stroke-linecap="round"/>
</svg>
